# Blender v2.93.1 OBJ File: 'piecetop.blend'
# www.blender.org
mtllib top.mtl
o Cassette_Plane.005
v 0.778553 0.149976 0.259187
v -0.000000 -0.561627 0.259187
v -0.778553 0.149976 0.259187
v -0.000000 0.486725 0.259187
v -0.000000 0.147558 0.259187
v 0.778553 -0.205826 0.259187
v -0.389276 -0.561627 0.259187
v 0.389276 0.486725 0.259187
v 0.389276 -0.561627 0.259187
v -0.778553 -0.205826 0.259187
v -0.389276 0.486725 0.259187
v -0.000000 -0.205826 0.259187
v 0.389276 0.149976 0.259187
v -0.389276 0.149976 0.259187
v -0.372755 -0.212880 0.259187
v 0.372755 -0.212880 0.259187
v 0.778553 -0.383727 0.259187
v -0.583915 -0.561627 0.259187
v -0.778553 0.308824 0.259187
v 0.583915 0.486725 0.259187
v 0.194638 -0.561627 0.259187
v -0.778553 -0.027925 0.259187
v -0.194638 0.486725 0.259187
v -0.000000 0.308824 0.259187
v -0.000000 -0.027925 0.259187
v 0.583915 0.149976 0.259187
v -0.194638 0.149976 0.259187
v 0.778553 -0.027925 0.259187
v -0.194638 -0.561627 0.259187
v 0.194638 0.486725 0.259187
v 0.778553 0.308824 0.259187
v -0.778553 -0.383727 0.259187
v -0.583915 0.486725 0.259187
v -0.000000 -0.383727 0.259187
v 0.194638 0.149976 0.259187
v -0.583915 0.149976 0.259187
v -0.372755 -0.020870 0.259187
v -0.389276 -0.383727 0.259187
v -0.211159 -0.212880 0.259187
v -0.583915 -0.205826 0.259187
v 0.372755 -0.020870 0.259187
v 0.389276 -0.383727 0.259187
v 0.583915 -0.205826 0.259187
v 0.211159 -0.212880 0.259187
v 0.389276 0.308824 0.259187
v -0.389276 0.308824 0.259187
v -0.194638 0.308824 0.259187
v 0.583915 0.308824 0.259187
v 0.194638 -0.383727 0.259187
v 0.583915 -0.383727 0.259187
v 0.583915 -0.027925 0.259187
v -0.583915 -0.383727 0.259187
v -0.194638 -0.383727 0.259187
v -0.211159 -0.020870 0.259187
v -0.583915 -0.027925 0.259187
v 0.211159 -0.020870 0.259187
v 0.194638 0.308824 0.259187
v -0.583915 0.308824 0.259187
v 0.752481 0.397792 0.259187
v 0.681253 0.462895 0.259187
v -0.681253 0.462895 0.259187
v -0.752481 0.397792 0.259187
v 0.583953 -0.561627 0.259187
v 0.681253 -0.537798 0.259187
v 0.752481 -0.472695 0.259187
v -0.752481 -0.472695 0.259187
v -0.681253 -0.537798 0.259187
v -0.778553 -0.146525 0.259187
v -0.778553 -0.087225 0.259187
v -0.400359 -0.159810 0.259187
v -0.400359 -0.073940 0.259187
v -0.583915 -0.146525 0.259187
v -0.583915 -0.087225 0.259187
v -0.000000 -0.146525 0.259187
v -0.000000 -0.087225 0.259187
v -0.183555 -0.159810 0.259187
v -0.183555 -0.073940 0.259187
v 0.183555 -0.159810 0.259187
v 0.183555 -0.073940 0.259187
v 0.778553 -0.087225 0.259187
v 0.778553 -0.146525 0.259187
v 0.400359 -0.159810 0.259187
v 0.400359 -0.073940 0.259187
v 0.583915 -0.146525 0.259187
v 0.583915 -0.087225 0.259187
v -0.324397 0.486725 0.259187
v -0.259518 0.486725 0.259187
v -0.324397 0.149976 0.259187
v -0.259518 0.149976 0.259187
v -0.324397 0.308824 0.259187
v -0.259518 0.308824 0.259187
v -0.328091 0.011929 0.259187
v -0.255823 0.011929 0.259187
v -0.259518 -0.561627 0.259187
v -0.324397 -0.561627 0.259187
v -0.328091 -0.245679 0.259187
v -0.255823 -0.245679 0.259187
v -0.324397 -0.383727 0.259187
v -0.259518 -0.383727 0.259187
v 0.259518 0.486725 0.259187
v 0.324397 0.486725 0.259187
v 0.259518 0.149976 0.259187
v 0.324397 0.149976 0.259187
v 0.255823 0.011929 0.259187
v 0.328091 0.011929 0.259187
v 0.259518 0.308824 0.259187
v 0.324397 0.308824 0.259187
v 0.255823 -0.245679 0.259187
v 0.328091 -0.245679 0.259187
v 0.324397 -0.561627 0.259187
v 0.259518 -0.561627 0.259187
v 0.259518 -0.383727 0.259187
v 0.324397 -0.383727 0.259187
v 0.194638 -0.561627 0.059188
v -0.000000 -0.561627 0.059188
v -0.778553 -0.027925 0.059187
v -0.778553 0.149976 0.059187
v -0.194638 0.486725 0.059187
v -0.000000 0.486725 0.059187
v -0.000000 0.308824 0.059187
v -0.000000 -0.027925 0.059187
v -0.000000 0.147558 0.059187
v 0.583915 0.149976 0.059187
v 0.778553 0.149976 0.059187
v -0.194638 0.149976 0.059187
v 0.778553 -0.146525 0.059187
v 0.778553 -0.205826 0.059187
v -0.324397 -0.561627 0.059188
v -0.389276 -0.561627 0.059188
v 0.324397 0.486725 0.059187
v 0.389276 0.486725 0.059187
v -0.778553 -0.383727 0.059187
v -0.778553 -0.205826 0.059187
v -0.583915 0.486725 0.059187
v -0.389276 0.486725 0.059187
v -0.000000 -0.383727 0.059187
v -0.000000 -0.205826 0.059187
v 0.324397 0.149976 0.059187
v 0.389276 0.149976 0.059187
v -0.583915 0.149976 0.059187
v -0.389276 0.149976 0.059187
v -0.372755 -0.020870 0.059187
v -0.389276 -0.383727 0.059187
v -0.372755 -0.212880 0.059187
v -0.211159 -0.212880 0.059187
v -0.583915 -0.205826 0.059187
v 0.372755 -0.020870 0.059187
v 0.389276 -0.383727 0.059187
v 0.372755 -0.212880 0.059187
v 0.583915 -0.205826 0.059187
v 0.328091 -0.245679 0.059187
v 0.389276 0.308824 0.059187
v -0.389276 0.308824 0.059187
v 0.778553 -0.383727 0.059187
v -0.583915 -0.561627 0.059188
v 0.583915 0.486725 0.059187
v 0.259518 -0.561627 0.059188
v -0.778553 -0.087225 0.059187
v -0.259518 0.486725 0.059187
v -0.681253 -0.537798 0.059188
v -0.000000 -0.087225 0.059187
v -0.259518 0.149976 0.059187
v 0.778553 -0.027925 0.059187
v -0.194638 -0.561627 0.059188
v 0.194638 0.486725 0.059187
v 0.194638 0.149976 0.059187
v -0.400359 -0.073941 0.059187
v -0.255823 -0.245679 0.059187
v 0.400359 -0.073941 0.059187
v 0.389276 -0.561627 0.059188
v 0.211159 -0.212880 0.059187
v -0.194638 0.308824 0.059187
v -0.259518 0.308824 0.059187
v 0.583915 0.308824 0.059187
v 0.778553 0.308824 0.059187
v 0.194638 -0.383727 0.059187
v 0.324397 -0.383727 0.059187
v 0.583915 -0.383727 0.059187
v 0.583915 -0.027925 0.059187
v 0.583915 -0.087225 0.059187
v -0.583915 -0.383727 0.059187
v -0.194638 -0.383727 0.059187
v -0.259518 -0.383727 0.059187
v -0.211159 -0.020870 0.059187
v -0.183555 -0.073941 0.059187
v -0.255823 0.011929 0.059187
v -0.583915 -0.027925 0.059187
v -0.583915 -0.087225 0.059187
v 0.211159 -0.020870 0.059187
v 0.183555 -0.073941 0.059187
v 0.328091 0.011929 0.059187
v 0.194638 0.308824 0.059187
v 0.324397 0.308824 0.059187
v -0.583915 0.308824 0.059187
v -0.778553 0.308824 0.059187
v 0.681253 0.462895 0.059187
v 0.752481 0.397792 0.059187
v 0.752481 -0.472695 0.059187
v -0.752481 0.397792 0.059187
v -0.681253 0.462895 0.059187
v 0.681253 -0.537798 0.059188
v 0.583953 -0.561627 0.059188
v -0.752481 -0.472695 0.059187
v -0.778553 -0.146525 0.059187
v -0.400359 -0.159810 0.059187
v -0.583915 -0.146525 0.059187
v -0.000000 -0.146525 0.059187
v -0.183555 -0.159810 0.059187
v 0.183555 -0.159810 0.059187
v 0.778553 -0.087225 0.059187
v 0.400359 -0.159810 0.059187
v 0.583915 -0.146525 0.059187
v -0.324397 0.486725 0.059187
v -0.324397 0.149976 0.059187
v -0.324397 0.308824 0.059187
v -0.328091 0.011929 0.059187
v -0.259518 -0.561627 0.059188
v -0.328091 -0.245679 0.059187
v -0.324397 -0.383727 0.059187
v 0.259518 0.486725 0.059187
v 0.259518 0.149976 0.059187
v 0.255823 0.011929 0.059187
v 0.259518 0.308824 0.059187
v 0.255823 -0.245679 0.059187
v 0.324397 -0.561627 0.059188
v 0.259518 -0.383727 0.059187
vt 0.375000 0.875000
vt 0.375000 1.000000
vt 0.500000 1.000000
vt 0.500000 0.875000
vt 0.375000 0.375000
vt 0.375000 0.500000
vt 0.500000 0.500000
vt 0.500000 0.375000
vt 0.875000 0.375000
vt 0.875000 0.500000
vt 1.000000 0.500000
vt 1.000000 0.375000
vt 0.708333 0.375000
vt 0.708333 0.500000
vt 0.750000 0.500000
vt 0.750000 0.375000
vt 0.708333 0.125000
vt 0.708333 0.250000
vt 0.750000 0.250000
vt 0.750000 0.125000
vt 0.875000 0.125000
vt 0.875000 0.250000
vt 1.000000 0.250000
vt 1.000000 0.125000
vt 0.125000 0.375000
vt 0.125000 0.500000
vt 0.250000 0.500000
vt 0.250000 0.375000
vt 0.125000 0.125000
vt 0.125000 0.250000
vt 0.250000 0.250000
vt 0.250000 0.125000
vt 0.375000 0.125000
vt 0.375000 0.250000
vt 0.500000 0.250000
vt 0.500000 0.125000
vt 0.125000 0.875000
vt 0.125000 1.000000
vt 0.250000 1.000000
vt 0.250000 0.875000
vt 0.708333 0.875000
vt 0.708333 1.000000
vt 0.750000 1.000000
vt 0.750000 0.875000
vt 0.625000 1.000000
vt 0.625000 0.875000
vt 0.000000 0.750000
vt 0.000000 0.875000
vt 0.125000 0.750000
vt 0.333333 0.125000
vt 0.333333 0.250000
vt 0.333333 0.000000
vt 0.375000 0.000000
vt 0.500000 0.000000
vt 0.000000 0.125000
vt 0.000000 0.250000
vt 0.875025 0.000000
vt 0.983257 0.062487
vt 0.937513 0.016743
vt 0.125000 0.000000
vt 0.250000 0.000000
vt 0.000000 0.375000
vt 0.000000 0.500000
vt 0.000000 0.333333
vt 0.125000 0.333333
vt 0.250000 0.333333
vt 0.750000 0.000000
vt 0.625000 0.250000
vt 0.625000 0.125000
vt 0.625000 0.000000
vt 0.708333 0.000000
vt 0.625000 0.500000
vt 0.625000 0.375000
vt 0.500000 0.333333
vt 0.625000 0.333333
vt 0.750000 0.333333
vt 0.875000 0.333333
vt 1.000000 0.333333
vt 0.333333 0.375000
vt 0.333333 0.500000
vt 0.375000 0.333333
vt 0.333333 0.875000
vt 0.333333 1.000000
vt 0.875000 1.000000
vt 0.875000 0.875000
vt 0.875000 0.750000
vt 1.000000 0.875000
vt 1.000000 0.750000
vt 0.062487 0.016743
vt 0.016743 0.062487
vt 0.875000 0.291667
vt 1.000000 0.291667
vt 0.750000 0.291667
vt 0.375000 0.291667
vt 0.500000 0.291667
vt 0.625000 0.291667
vt 0.125000 0.291667
vt 0.250000 0.291667
vt 0.000000 0.291667
vt 0.666667 1.000000
vt 0.666667 0.875000
vt 0.666667 0.500000
vt 0.666667 0.375000
vt 0.666667 0.125000
vt 0.666667 0.000000
vt 0.666667 0.250000
vt 0.291667 1.000000
vt 0.291667 0.875000
vt 0.291667 0.500000
vt 0.291667 0.375000
vt 0.291667 0.125000
vt 0.291667 0.000000
vt 0.291667 0.250000
vt 0.375000 0.375000
vt 0.500000 0.375000
vt 0.500000 0.500000
vt 0.375000 0.500000
vt 0.875000 0.375000
vt 1.000000 0.375000
vt 1.000000 0.500000
vt 0.875000 0.500000
vt 0.708333 0.125000
vt 0.750000 0.125000
vt 0.750000 0.250000
vt 0.708333 0.250000
vt 0.875000 0.125000
vt 1.000000 0.125000
vt 1.000000 0.250000
vt 0.875000 0.250000
vt 0.125000 0.375000
vt 0.250000 0.375000
vt 0.250000 0.500000
vt 0.125000 0.500000
vt 0.125000 0.125000
vt 0.250000 0.125000
vt 0.250000 0.250000
vt 0.125000 0.250000
vt 0.375000 0.125000
vt 0.500000 0.125000
vt 0.500000 0.250000
vt 0.375000 0.250000
vt 0.333333 0.125000
vt 0.333333 0.250000
vt 0.333333 0.000000
vt 0.375000 0.000000
vt 0.500000 0.000000
vt 0.000000 0.125000
vt 0.000000 0.250000
vt 0.875025 0.000000
vt 0.937513 0.016743
vt 0.983257 0.062487
vt 0.125000 0.000000
vt 0.250000 0.000000
vt 0.000000 0.375000
vt 0.000000 0.500000
vt 0.000000 0.333333
vt 0.125000 0.333333
vt 0.250000 0.333333
vt 0.750000 0.000000
vt 0.625000 0.125000
vt 0.625000 0.250000
vt 0.625000 0.000000
vt 0.708333 0.000000
vt 0.625000 0.375000
vt 0.625000 0.500000
vt 0.500000 0.333333
vt 0.625000 0.333333
vt 0.750000 0.375000
vt 0.750000 0.500000
vt 0.750000 0.333333
vt 0.875000 0.333333
vt 1.000000 0.333333
vt 0.375000 0.333333
vt 0.016743 0.062487
vt 0.062487 0.016743
vt 1.000000 0.291667
vt 0.875000 0.291667
vt 0.750000 0.291667
vt 0.500000 0.291667
vt 0.375000 0.291667
vt 0.625000 0.291667
vt 0.250000 0.291667
vt 0.125000 0.291667
vt 0.000000 0.291667
vt 0.666667 0.000000
vt 0.666667 0.125000
vt 0.666667 0.250000
vt 0.291667 0.000000
vt 0.291667 0.125000
vt 0.291667 0.250000
vt 0.666667 0.375000
vt 0.875000 0.750000
vt 0.875000 0.875000
vt 0.666667 0.875000
vt 0.625000 0.875000
vt 0.375000 0.875000
vt 0.333333 0.875000
vt 0.708333 0.500000
vt 0.291667 0.875000
vt 0.666667 0.500000
vt 0.125000 1.000000
vt 0.250000 1.000000
vt 0.750000 0.875000
vt 0.708333 0.875000
vt 0.250000 0.875000
vt 0.125000 0.875000
vt 0.500000 1.000000
vt 0.625000 1.000000
vt 0.708333 0.375000
vt 0.666667 1.000000
vt 0.291667 0.375000
vt 0.291667 1.000000
vt 0.500000 0.875000
vt 0.375000 1.000000
vt 0.750000 1.000000
vt 0.875000 1.000000
vt 0.291667 0.500000
vt 0.062487 0.983257
vt 0.016743 0.937513
vt 0.016743 0.937513
vt 0.062487 0.983257
vt 0.983257 0.937513
vt 0.937513 0.983257
vt 0.937513 0.983257
vt 0.983257 0.937513
vt 0.000000 0.875000
vt 1.000000 0.875025
vt 0.333333 1.000000
vt 1.000000 0.750000
vt 0.333333 0.500000
vt 0.000000 0.750000
vt 0.333333 0.375000
vt 0.708333 1.000000
vt 0.125000 0.750000
vt 0.000000 0.000000
vt 0.000000 0.000000
vt 0.000000 0.000000
vt 0.000000 0.000000
vt 0.000000 0.000000
vt 0.000000 0.000000
vt 0.000000 0.000000
vt 0.000000 0.000000
vt 0.000000 0.000000
vt 0.000000 0.000000
vn 0.0000 0.0000 1.0000
vn 0.0000 0.0000 -1.0000
vn -0.5919 -0.8060 0.0000
vn 1.0000 -0.0000 0.0000
vn 0.0000 -1.0000 0.0000
vn 0.0000 1.0000 -0.0000
vn -1.0000 0.0000 0.0000
vn 0.5919 -0.8060 0.0000
vn 0.8872 -0.4614 0.0000
vn 0.5919 0.8060 0.0000
vn -0.2378 -0.9713 0.0000
vn -0.8872 0.4614 -0.0000
vn 0.0124 0.9999 0.0000
vn 0.8872 0.4614 -0.0000
vn -0.0124 0.9999 0.0000
vn 0.6747 0.7381 0.0000
vn 0.9596 -0.2812 0.0000
vn 0.2378 0.9713 0.0000
vn -0.6747 0.7381 0.0000
vn 0.9596 0.2812 0.0000
vn 0.6747 -0.7381 0.0000
vn -0.9596 0.2812 0.0000
vn -0.5919 0.8060 -0.0000
vn 0.2379 -0.9713 0.0000
vn -0.2378 0.9713 0.0000
vn -0.6747 -0.7381 0.0000
vn -0.9596 -0.2812 0.0000
vn -0.8872 -0.4614 0.0000
vn 0.8872 0.4615 -0.0000
usemtl None
s off
f 57/1/1 30/2/1 4/3/1 24/4/1
f 56/5/1 35/6/1 5/7/1 25/8/1
f 55/9/1 36/10/1 3/11/1 22/12/1
f 92/13/1 88/14/1 14/15/1 37/16/1
f 98/17/1 96/18/1 15/19/1 38/20/1
f 52/21/1 40/22/1 10/23/1 32/24/1
f 51/25/1 26/26/1 13/27/1 41/28/1
f 50/29/1 43/30/1 16/31/1 42/32/1
f 49/33/1 44/34/1 12/35/1 34/36/1
f 48/37/1 20/38/1 8/39/1 45/40/1
f 90/41/1 86/42/1 11/43/1 46/44/1
f 24/4/1 4/3/1 23/45/1 47/46/1
f 1/47/1 31/48/1 48/37/1 26/49/1
f 112/50/1 108/51/1 44/34/1 49/33/1
f 111/52/1 112/50/1 49/33/1 21/53/1
f 21/53/1 49/33/1 34/36/1 2/54/1
f 17/55/1 6/56/1 43/30/1 50/29/1
f 18/57/1 52/21/1 32/24/1 66/58/1 67/59/1
f 63/60/1 50/29/1 42/32/1 9/61/1
f 28/62/1 1/63/1 26/26/1 51/25/1
f 80/64/1 28/62/1 51/25/1 85/65/1
f 85/65/1 51/25/1 41/28/1 83/66/1
f 38/20/1 15/19/1 40/22/1 52/21/1
f 7/67/1 38/20/1 52/21/1 18/57/1
f 34/36/1 12/35/1 39/68/1 53/69/1
f 2/54/1 34/36/1 53/69/1 29/70/1
f 95/71/1 98/17/1 38/20/1 7/67/1
f 25/8/1 5/7/1 27/72/1 54/73/1
f 75/74/1 25/8/1 54/73/1 77/75/1
f 37/16/1 14/15/1 36/10/1 55/9/1
f 71/76/1 37/16/1 55/9/1 73/77/1
f 73/77/1 55/9/1 22/12/1 69/78/1
f 104/79/1 102/80/1 35/6/1 56/5/1
f 79/81/1 56/5/1 25/8/1 75/74/1
f 106/82/1 100/83/1 30/2/1 57/1/1
f 46/44/1 11/43/1 33/84/1 58/85/1
f 36/86/1 58/85/1 19/87/1 3/88/1
f 17/55/1 50/29/1 63/60/1 64/89/1 65/90/1
f 40/22/1 72/91/1 68/92/1 10/23/1
f 72/91/1 73/77/1 69/78/1 68/92/1
f 15/19/1 70/93/1 72/91/1 40/22/1
f 70/93/1 71/76/1 73/77/1 72/91/1
f 44/34/1 78/94/1 74/95/1 12/35/1
f 78/94/1 79/81/1 75/74/1 74/95/1
f 12/35/1 74/95/1 76/96/1 39/68/1
f 74/95/1 75/74/1 77/75/1 76/96/1
f 43/30/1 84/97/1 82/98/1 16/31/1
f 84/97/1 85/65/1 83/66/1 82/98/1
f 6/56/1 81/99/1 84/97/1 43/30/1
f 81/99/1 80/64/1 85/65/1 84/97/1
f 47/46/1 23/45/1 87/100/1 91/101/1
f 91/101/1 87/100/1 86/42/1 90/41/1
f 54/73/1 27/72/1 89/102/1 93/103/1
f 93/103/1 89/102/1 88/14/1 92/13/1
f 29/70/1 53/69/1 99/104/1 94/105/1
f 94/105/1 99/104/1 98/17/1 95/71/1
f 53/69/1 39/68/1 97/106/1 99/104/1
f 99/104/1 97/106/1 96/18/1 98/17/1
f 45/40/1 8/39/1 101/107/1 107/108/1
f 107/108/1 101/107/1 100/83/1 106/82/1
f 41/28/1 13/27/1 103/109/1 105/110/1
f 105/110/1 103/109/1 102/80/1 104/79/1
f 9/61/1 42/32/1 113/111/1 110/112/1
f 110/112/1 113/111/1 112/50/1 111/52/1
f 42/32/1 16/31/1 109/113/1 113/111/1
f 113/111/1 109/113/1 108/51/1 112/50/1
f 189/114/2 121/115/2 122/116/2 166/117/2
f 187/118/2 116/119/2 117/120/2 140/121/2
f 219/122/2 143/123/2 144/124/2 218/125/2
f 181/126/2 132/127/2 133/128/2 146/129/2
f 179/130/2 147/131/2 139/132/2 123/133/2
f 178/134/2 148/135/2 149/136/2 150/137/2
f 176/138/2 136/139/2 137/140/2 171/141/2
f 226/142/2 176/138/2 171/141/2 224/143/2
f 157/144/2 114/145/2 176/138/2 226/142/2
f 114/145/2 115/146/2 136/139/2 176/138/2
f 154/147/2 178/134/2 150/137/2 127/148/2
f 155/149/2 160/150/2 203/151/2 132/127/2 181/126/2
f 202/152/2 170/153/2 148/135/2 178/134/2
f 163/154/2 179/130/2 123/133/2 124/155/2
f 210/156/2 180/157/2 179/130/2 163/154/2
f 180/157/2 169/158/2 147/131/2 179/130/2
f 143/123/2 181/126/2 146/129/2 144/124/2
f 129/159/2 155/149/2 181/126/2 143/123/2
f 136/139/2 182/160/2 145/161/2 137/140/2
f 115/146/2 164/162/2 182/160/2 136/139/2
f 128/163/2 129/159/2 143/123/2 219/122/2
f 121/115/2 184/164/2 125/165/2 122/116/2
f 161/166/2 185/167/2 184/164/2 121/115/2
f 142/168/2 187/118/2 140/121/2 141/169/2
f 167/170/2 188/171/2 187/118/2 142/168/2
f 188/171/2 158/172/2 116/119/2 187/118/2
f 190/173/2 161/166/2 121/115/2 189/114/2
f 154/147/2 198/174/2 201/175/2 202/152/2 178/134/2
f 146/129/2 133/128/2 204/176/2 206/177/2
f 206/177/2 204/176/2 158/172/2 188/171/2
f 144/124/2 146/129/2 206/177/2 205/178/2
f 205/178/2 206/177/2 188/171/2 167/170/2
f 171/141/2 137/140/2 207/179/2 209/180/2
f 209/180/2 207/179/2 161/166/2 190/173/2
f 137/140/2 145/161/2 208/181/2 207/179/2
f 207/179/2 208/181/2 185/167/2 161/166/2
f 150/137/2 149/136/2 211/182/2 212/183/2
f 212/183/2 211/182/2 169/158/2 180/157/2
f 127/148/2 150/137/2 212/183/2 126/184/2
f 126/184/2 212/183/2 180/157/2 210/156/2
f 164/162/2 217/185/2 183/186/2 182/160/2
f 217/185/2 128/163/2 219/122/2 183/186/2
f 182/160/2 183/186/2 168/187/2 145/161/2
f 183/186/2 219/122/2 218/125/2 168/187/2
f 170/153/2 225/188/2 177/189/2 148/135/2
f 225/188/2 157/144/2 226/142/2 177/189/2
f 148/135/2 177/189/2 151/190/2 149/136/2
f 177/189/2 226/142/2 224/143/2 151/190/2
f 54/73/3 93/103/3 186/191/3 184/164/3
f 58/85/4 36/86/4 140/192/4 194/193/4
f 47/46/5 91/101/5 173/194/5 172/195/5
f 106/82/5 57/1/5 192/196/5 223/197/5
f 6/56/4 17/55/4 154/147/4 127/148/4
f 14/15/6 88/14/6 214/198/6 141/169/6
f 107/108/5 106/82/5 223/197/5 193/199/5
f 7/67/5 18/57/5 155/149/5 129/159/5
f 88/14/6 89/102/6 162/200/6 214/198/6
f 21/53/5 2/54/5 115/146/5 114/145/5
f 8/39/6 20/38/6 156/201/6 131/202/6
f 90/41/5 46/44/5 153/203/5 215/204/5
f 22/12/7 3/11/7 117/120/7 116/119/7
f 48/37/5 45/40/5 152/205/5 174/206/5
f 111/52/5 21/53/5 114/145/5 157/144/5
f 91/101/5 90/41/5 215/204/5 173/194/5
f 23/45/6 4/3/6 119/207/6 118/208/6
f 69/78/7 22/12/7 116/119/7 158/172/7
f 92/13/8 37/16/8 142/168/8 216/209/8
f 87/100/6 23/45/6 118/208/6 159/210/6
f 93/103/5 92/13/5 216/209/5 186/191/5
f 56/5/9 79/81/9 190/173/9 189/114/9
f 44/34/10 108/51/10 224/143/10 171/141/10
f 18/57/11 67/59/11 160/150/11 155/149/11
f 39/68/12 76/96/12 208/181/12 145/161/12
f 41/28/3 105/110/3 191/211/3 147/131/3
f 108/51/6 109/113/6 151/190/6 224/143/6
f 27/72/13 5/7/13 122/116/13 125/165/13
f 76/96/7 77/75/7 185/167/7 208/181/7
f 9/61/5 110/112/5 225/188/5 170/153/5
f 13/27/6 26/26/6 123/133/6 139/132/6
f 81/99/4 6/56/4 127/148/4 126/184/4
f 78/94/14 44/34/14 171/141/14 209/180/14
f 110/112/5 111/52/5 157/144/5 225/188/5
f 89/102/6 27/72/6 125/165/6 162/200/6
f 95/71/5 7/67/5 129/159/5 128/163/5
f 79/81/4 78/94/4 209/180/4 190/173/4
f 45/40/5 107/108/5 193/199/5 152/205/5
f 1/63/4 28/62/4 163/154/4 124/155/4
f 29/70/5 94/105/5 217/185/5 164/162/5
f 101/107/6 8/39/6 131/202/6 130/212/6
f 57/1/5 24/4/5 120/213/5 192/196/5
f 2/54/5 29/70/5 164/162/5 115/146/5
f 94/105/5 95/71/5 128/163/5 217/185/5
f 32/24/7 10/23/7 133/128/7 132/127/7
f 4/3/6 30/2/6 165/214/6 119/207/6
f 15/19/10 96/18/10 218/125/10 144/124/10
f 33/84/6 11/43/6 135/215/6 134/216/6
f 46/44/5 58/85/5 194/193/5 153/203/5
f 96/18/6 97/106/6 168/187/6 218/125/6
f 5/7/15 35/6/15 166/117/15 122/116/15
f 103/109/6 13/27/6 139/132/6 138/217/6
f 28/62/4 80/64/4 210/156/4 163/154/4
f 60/218/16 59/219/16 197/220/16 196/221/16
f 36/10/6 14/15/6 141/169/6 140/121/6
f 80/64/4 81/99/4 126/184/4 210/156/4
f 17/55/17 65/90/17 198/174/17 154/147/17
f 20/38/18 60/218/18 196/221/18 156/201/18
f 37/16/9 71/76/9 167/170/9 142/168/9
f 16/31/12 82/98/12 211/182/12 149/136/12
f 62/222/19 61/223/19 200/224/19 199/225/19
f 59/219/20 31/48/20 175/226/20 197/220/20
f 82/98/7 83/66/7 169/158/7 211/182/7
f 65/90/21 64/89/21 201/175/21 198/174/21
f 19/87/22 62/222/22 199/225/22 195/227/22
f 97/106/23 39/68/23 145/161/23 168/187/23
f 64/89/24 63/60/24 202/152/24 201/175/24
f 61/223/25 33/84/25 134/216/25 200/224/25
f 67/59/26 66/58/26 203/151/26 160/150/26
f 66/58/27 32/24/27 132/127/27 203/151/27
f 83/66/28 41/28/28 147/131/28 169/158/28
f 30/2/6 100/83/6 220/228/6 165/214/6
f 10/23/7 68/92/7 204/176/7 133/128/7
f 100/83/6 101/107/6 130/212/6 220/228/6
f 68/92/7 69/78/7 158/172/7 204/176/7
f 3/88/7 19/87/7 195/227/7 117/229/7
f 35/6/6 102/80/6 221/230/6 166/117/6
f 70/93/29 15/19/29 144/124/29 205/178/29
f 63/60/5 9/61/5 170/153/5 202/152/5
f 102/80/6 103/109/6 138/217/6 221/230/6
f 109/113/23 16/31/23 149/136/23 151/190/23
f 71/76/4 70/93/4 205/178/4 167/170/4
f 77/75/28 54/73/28 184/164/28 185/167/28
f 31/48/4 1/47/4 124/231/4 175/226/4
f 104/79/8 56/5/8 189/114/8 222/232/8
f 11/43/6 86/42/6 213/233/6 135/215/6
f 26/49/7 48/37/7 174/206/7 123/234/7
f 24/4/5 47/46/5 172/195/5 120/213/5
f 105/110/5 104/79/5 222/232/5 191/211/5
f 86/42/6 87/100/6 159/210/6 213/233/6
f 61/235/1 58/236/1 33/237/1
f 62/238/1 58/236/1 61/235/1
f 19/239/1 58/236/1 62/238/1
f 60/240/1 20/241/1 48/242/1
f 59/243/1 60/240/1 48/242/1
f 31/244/1 59/243/1 48/242/1
