# Blender v2.93.1 OBJ File: 'piecetop.blend'
# www.blender.org
mtllib crown.mtl
o Circle.001
v 0.000000 0.664459 -0.133457
v 0.171975 0.641818 -0.133457
v 0.332229 0.575438 -0.133457
v 0.469843 0.469843 -0.133457
v 0.575438 0.332229 -0.133457
v 0.641818 0.171975 -0.133457
v 0.664459 -0.000000 -0.133457
v 0.641818 -0.171975 -0.133457
v 0.575438 -0.332229 -0.133457
v 0.469843 -0.469843 -0.133457
v 0.332229 -0.575438 -0.133457
v 0.171975 -0.641818 -0.133457
v -0.000000 -0.664459 -0.133457
v -0.171975 -0.641818 -0.133457
v -0.332229 -0.575438 -0.133457
v -0.469843 -0.469843 -0.133457
v -0.575438 -0.332229 -0.133457
v -0.641818 -0.171975 -0.133457
v -0.664459 0.000000 -0.133457
v -0.641818 0.171975 -0.133457
v -0.575438 0.332229 -0.133457
v -0.469843 0.469843 -0.133457
v -0.332230 0.575438 -0.133457
v -0.171974 0.641818 -0.133457
v 0.120454 0.449541 -0.133457
v -0.000000 0.465399 -0.133457
v 0.232699 0.403047 -0.133457
v 0.329087 0.329087 -0.133457
v 0.403047 0.232699 -0.133457
v 0.449541 0.120454 -0.133457
v 0.465399 -0.000000 -0.133457
v 0.449541 -0.120454 -0.133457
v 0.403047 -0.232699 -0.133457
v 0.329087 -0.329087 -0.133457
v 0.232699 -0.403047 -0.133457
v 0.120454 -0.449541 -0.133457
v -0.000000 -0.465399 -0.133457
v -0.120454 -0.449541 -0.133457
v -0.232699 -0.403047 -0.133457
v -0.329087 -0.329087 -0.133457
v -0.403047 -0.232699 -0.133457
v -0.449541 -0.120454 -0.133457
v -0.465399 -0.000000 -0.133457
v -0.449541 0.120454 -0.133457
v -0.403047 0.232699 -0.133457
v -0.329087 0.329087 -0.133457
v -0.232700 0.403047 -0.133457
v -0.120454 0.449541 -0.133457
v 0.120454 0.449541 0.116543
v -0.000000 0.465399 0.116543
v 0.232699 0.403047 0.116543
v 0.329087 0.329087 0.116543
v 0.403047 0.232699 0.116543
v 0.449541 0.120454 0.116543
v 0.465399 -0.000000 0.116543
v 0.449541 -0.120454 0.116543
v 0.403047 -0.232699 0.116543
v 0.329087 -0.329087 0.116543
v 0.232699 -0.403047 0.116543
v 0.120454 -0.449541 0.116543
v -0.000000 -0.465399 0.116543
v -0.120454 -0.449541 0.116543
v -0.232699 -0.403047 0.116543
v -0.329087 -0.329087 0.116543
v -0.403047 -0.232699 0.116543
v -0.449541 -0.120454 0.116543
v -0.465399 -0.000000 0.116543
v -0.449541 0.120454 0.116543
v -0.403047 0.232699 0.116543
v -0.329087 0.329087 0.116543
v -0.232700 0.403047 0.116543
v -0.120454 0.449541 0.116543
v 0.171975 0.641818 0.116543
v 0.000000 0.664459 0.116543
v 0.332229 0.575438 0.116543
v 0.469843 0.469843 0.116543
v 0.575438 0.332229 0.116543
v 0.641818 0.171975 0.116543
v 0.664459 -0.000000 0.116543
v 0.641818 -0.171975 0.116543
v 0.575438 -0.332229 0.116543
v 0.469843 -0.469843 0.116543
v 0.332229 -0.575438 0.116543
v 0.171975 -0.641818 0.116543
v -0.000000 -0.664459 0.116543
v -0.171975 -0.641818 0.116543
v -0.332229 -0.575438 0.116543
v -0.469843 -0.469843 0.116543
v -0.575438 -0.332229 0.116543
v -0.641818 -0.171975 0.116543
v -0.664459 0.000000 0.116543
v -0.641818 0.171975 0.116543
v -0.575438 0.332229 0.116543
v -0.469843 0.469843 0.116543
v -0.332230 0.575438 0.116543
v -0.171974 0.641818 0.116543
v 0.120454 0.449541 0.316543
v -0.000000 0.465399 0.423023
v 0.403047 0.232699 0.363002
v 0.329087 0.329087 0.316543
v 0.449541 0.120454 0.316543
v 0.403047 -0.232699 0.363002
v 0.449541 -0.120454 0.316543
v 0.329087 -0.329087 0.316543
v -0.000000 -0.465399 0.423023
v 0.120454 -0.449541 0.316543
v -0.120454 -0.449541 0.316543
v -0.403047 -0.232699 0.363002
v -0.329087 -0.329087 0.316543
v -0.449541 -0.120454 0.316543
v -0.403047 0.232699 0.363002
v -0.449541 0.120454 0.316543
v -0.329087 0.329087 0.316543
v -0.120454 0.449541 0.316543
v 0.171975 0.641818 0.316543
v 0.000000 0.664459 0.423023
v 0.575438 0.332229 0.363002
v 0.469843 0.469843 0.316543
v 0.641818 0.171975 0.316543
v 0.575438 -0.332229 0.363002
v 0.641818 -0.171975 0.316543
v 0.469843 -0.469843 0.316543
v -0.000000 -0.664459 0.423023
v 0.171975 -0.641818 0.316543
v -0.171975 -0.641818 0.316543
v -0.575438 -0.332229 0.363002
v -0.469843 -0.469843 0.316543
v -0.641818 -0.171975 0.316543
v -0.575438 0.332229 0.363002
v -0.641818 0.171975 0.316543
v -0.469843 0.469843 0.316543
v -0.171974 0.641818 0.316543
vt 0.409359 0.838276
vt 0.500000 0.850209
vt 0.500000 1.000000
vt 0.370590 0.982963
vt 0.324896 0.803290
vt 0.250000 0.933013
vt 0.252365 0.747635
vt 0.146447 0.853553
vt 0.196710 0.675105
vt 0.066987 0.750000
vt 0.161724 0.590641
vt 0.017037 0.629410
vt 0.149791 0.500000
vt 0.000000 0.500000
vt 0.161724 0.409359
vt 0.017037 0.370590
vt 0.196710 0.324896
vt 0.066987 0.250000
vt 0.252365 0.252365
vt 0.146447 0.146447
vt 0.324896 0.196710
vt 0.250000 0.066987
vt 0.409359 0.161724
vt 0.370590 0.017037
vt 0.500000 0.149791
vt 0.500000 0.000000
vt 0.590641 0.161724
vt 0.629410 0.017037
vt 0.675104 0.196710
vt 0.750000 0.066987
vt 0.747635 0.252365
vt 0.853553 0.146447
vt 0.803290 0.324896
vt 0.933013 0.250000
vt 0.838276 0.409359
vt 0.982963 0.370591
vt 0.850209 0.500000
vt 1.000000 0.500000
vt 0.838276 0.590641
vt 0.982963 0.629409
vt 0.803290 0.675104
vt 0.933013 0.750000
vt 0.747635 0.747635
vt 0.853553 0.853553
vt 0.675104 0.803290
vt 0.750000 0.933013
vt 0.590641 0.838276
vt 0.629409 0.982963
vt 0.838276 0.590641
vt 0.838276 0.590641
vt 0.982963 0.629409
vt 0.982963 0.629409
vt 0.324896 0.803290
vt 0.250000 0.933013
vt 0.370590 0.982963
vt 0.409359 0.838276
vt 0.252365 0.747635
vt 0.146447 0.853553
vt 0.933013 0.250000
vt 0.933013 0.250000
vt 0.982963 0.370591
vt 0.982963 0.370591
vt 0.017037 0.629410
vt 0.017037 0.629410
vt 0.161724 0.590641
vt 0.161724 0.590641
vt 0.149791 0.500000
vt 0.000000 0.500000
vt 0.161724 0.409359
vt 0.017037 0.370590
vt 0.853553 0.146447
vt 0.853553 0.146447
vt 0.590641 0.161724
vt 0.590641 0.161724
vt 0.500000 0.149791
vt 0.500000 0.149791
vt 0.324896 0.196710
vt 0.250000 0.066987
vt 0.146447 0.146447
vt 0.252365 0.252365
vt 0.409359 0.161724
vt 0.370590 0.017037
vt 0.838276 0.409359
vt 0.838276 0.409359
vt 0.409359 0.161724
vt 0.675104 0.196710
vt 0.750000 0.066987
vt 0.629410 0.017037
vt 0.747635 0.252365
vt 0.252365 0.747635
vt 0.146447 0.853553
vt 0.500000 1.000000
vt 0.500000 1.000000
vt 0.370590 0.982963
vt 0.850209 0.500000
vt 1.000000 0.500000
vt 0.500000 0.850209
vt 0.500000 0.850209
vt 0.590641 0.838276
vt 0.590641 0.838276
vt 0.747635 0.252365
vt 0.675104 0.803290
vt 0.750000 0.933013
vt 0.853553 0.853553
vt 0.747635 0.747635
vt 0.629409 0.982963
vt 0.500000 0.000000
vt 0.500000 0.000000
vt 0.629410 0.017037
vt 0.066987 0.250000
vt 0.803290 0.675104
vt 0.196710 0.324896
vt 0.066987 0.750000
vt 0.803290 0.324896
vt 0.933013 0.750000
vt 0.196710 0.675105
vt 0.409359 0.838276
vt 0.196710 0.675105
vt 0.066987 0.750000
vt 0.196710 0.324896
vt 0.066987 0.250000
vt 0.017037 0.370590
vt 0.161724 0.409359
vt 0.252365 0.252365
vt 0.146447 0.146447
vt 0.370590 0.017037
vt 0.803290 0.324896
vt 0.803290 0.675104
vt 0.933013 0.750000
vt 0.747635 0.747635
vt 0.853553 0.853553
vt 0.629409 0.982963
vn -0.0000 -0.0000 -1.0000
vn -0.2588 -0.9659 0.0000
vn 0.0000 0.0000 1.0000
vn -0.9239 -0.3827 0.0000
vn 0.2588 -0.9659 0.0000
vn -0.7934 -0.6088 0.0000
vn 0.1305 0.9914 0.0000
vn -0.2588 0.9659 0.0000
vn -0.1305 0.9914 0.0000
vn -0.7071 0.7071 -0.0000
vn 0.1305 -0.9914 0.0000
vn 0.7071 -0.7071 0.0000
vn -0.1305 -0.9914 0.0000
vn -0.6088 0.7934 0.0000
vn -0.9914 -0.1305 0.0000
vn 0.7934 -0.6088 0.0000
vn 0.9239 -0.3827 0.0000
vn -0.3827 0.9239 0.0000
vn -0.9914 0.1305 -0.0000
vn 0.6088 -0.7934 0.0000
vn -0.9239 0.3827 0.0000
vn 0.3827 -0.9239 0.0000
vn -0.7934 0.6088 -0.0000
vn -0.3827 -0.9239 0.0000
vn -0.6088 -0.7934 0.0000
vn 0.3827 0.9239 0.0000
vn 0.6088 0.7934 0.0000
vn 0.7934 0.6088 0.0000
vn 0.9239 0.3827 -0.0000
vn 0.9914 0.1305 -0.0000
vn 0.9914 -0.1305 0.0000
vn 0.5804 -0.0764 0.8108
vn -0.1829 0.2384 0.9538
vn 0.1150 -0.2776 0.9538
vn 0.1150 0.2776 0.9538
vn -0.1829 -0.2384 0.9538
vn 0.5804 0.0764 0.8108
vn -0.5804 0.0764 0.8108
vn 0.1829 -0.2384 0.9538
vn -0.1150 0.2776 0.9538
vn -0.1150 -0.2776 0.9538
vn 0.1829 0.2384 0.9538
vn -0.5804 -0.0764 0.8108
vn 0.2588 0.9659 0.0000
vn 0.7071 0.7071 -0.0000
vn -0.7071 -0.7071 0.0000
vn -0.9659 -0.2588 0.0000
vn 0.9659 0.2588 0.0000
vn -0.9659 0.2588 0.0000
vn 0.9659 -0.2588 0.0000
usemtl None
s off
f 25/1/1 26/2/1 1/3/1 2/4/1
f 27/5/1 25/1/1 2/4/1 3/6/1
f 28/7/1 27/5/1 3/6/1 4/8/1
f 29/9/1 28/7/1 4/8/1 5/10/1
f 30/11/1 29/9/1 5/10/1 6/12/1
f 31/13/1 30/11/1 6/12/1 7/14/1
f 32/15/1 31/13/1 7/14/1 8/16/1
f 33/17/1 32/15/1 8/16/1 9/18/1
f 34/19/1 33/17/1 9/18/1 10/20/1
f 35/21/1 34/19/1 10/20/1 11/22/1
f 36/23/1 35/21/1 11/22/1 12/24/1
f 37/25/1 36/23/1 12/24/1 13/26/1
f 38/27/1 37/25/1 13/26/1 14/28/1
f 39/29/1 38/27/1 14/28/1 15/30/1
f 40/31/1 39/29/1 15/30/1 16/32/1
f 41/33/1 40/31/1 16/32/1 17/34/1
f 42/35/1 41/33/1 17/34/1 18/36/1
f 43/37/1 42/35/1 18/36/1 19/38/1
f 44/39/1 43/37/1 19/38/1 20/40/1
f 45/41/1 44/39/1 20/40/1 21/42/1
f 46/43/1 45/41/1 21/42/1 22/44/1
f 47/45/1 46/43/1 22/44/1 23/46/1
f 48/47/1 47/45/1 23/46/1 24/48/1
f 26/2/1 48/47/1 24/48/1 1/3/1
f 68/49/2 112/50/2 130/51/2 92/52/2
f 51/53/3 75/54/3 73/55/3 49/56/3
f 52/57/3 76/58/3 75/54/3 51/53/3
f 89/59/4 126/60/4 128/61/4 90/62/4
f 78/63/5 119/64/5 101/65/5 54/66/5
f 55/67/3 79/68/3 78/63/3 54/66/3
f 56/69/3 80/70/3 79/68/3 55/67/3
f 88/71/6 127/72/6 126/60/6 89/59/6
f 62/73/7 107/74/7 105/75/7 61/76/7
f 59/77/3 83/78/3 82/79/3 58/80/3
f 60/81/3 84/82/3 83/78/3 59/77/3
f 90/62/8 128/61/8 110/83/8 66/84/8
f 61/76/9 105/75/9 106/85/9 60/81/9
f 63/86/3 87/87/3 86/88/3 62/73/3
f 64/89/3 88/71/3 87/87/3 63/86/3
f 52/57/10 100/90/10 118/91/10 76/58/10
f 74/92/7 116/93/7 115/94/7 73/55/7
f 67/95/3 91/96/3 90/62/3 66/84/3
f 68/49/3 92/52/3 91/96/3 67/95/3
f 50/97/11 98/98/11 114/99/11 72/100/11
f 64/89/12 109/101/12 127/72/12 88/71/12
f 71/102/3 95/103/3 94/104/3 70/105/3
f 72/100/3 96/106/3 95/103/3 71/102/3
f 85/107/13 123/108/13 125/109/13 86/88/13
f 22/44/14 94/104/14 95/103/14 23/46/14
f 31/13/15 55/67/15 54/66/15 30/11/15
f 9/18/16 81/110/16 82/79/16 10/20/16
f 45/41/17 69/111/17 68/49/17 44/39/17
f 23/46/18 95/103/18 96/106/18 24/48/18
f 32/15/19 56/69/19 55/67/19 31/13/19
f 10/20/20 82/79/20 83/78/20 11/22/20
f 46/43/16 70/105/16 69/111/16 45/41/16
f 24/48/9 96/106/9 74/92/9 1/3/9
f 33/17/21 57/112/21 56/69/21 32/15/21
f 11/22/22 83/78/22 84/82/22 12/24/22
f 47/45/20 71/102/20 70/105/20 46/43/20
f 34/19/23 58/80/23 57/112/23 33/17/23
f 12/24/11 84/82/11 85/107/11 13/26/11
f 48/47/22 72/100/22 71/102/22 47/45/22
f 35/21/14 59/77/14 58/80/14 34/19/14
f 13/26/13 85/107/13 86/88/13 14/28/13
f 26/2/11 50/97/11 72/100/11 48/47/11
f 36/23/18 60/81/18 59/77/18 35/21/18
f 14/28/24 86/88/24 87/87/24 15/30/24
f 1/3/7 74/92/7 73/55/7 2/4/7
f 37/25/9 61/76/9 60/81/9 36/23/9
f 15/30/25 87/87/25 88/71/25 16/32/25
f 2/4/26 73/55/26 75/54/26 3/6/26
f 38/27/7 62/73/7 61/76/7 37/25/7
f 16/32/6 88/71/6 89/59/6 17/34/6
f 3/6/27 75/54/27 76/58/27 4/8/27
f 39/29/26 63/86/26 62/73/26 38/27/26
f 17/34/4 89/59/4 90/62/4 18/36/4
f 25/1/13 49/56/13 50/97/13 26/2/13
f 4/8/28 76/58/28 77/113/28 5/10/28
f 40/31/27 64/89/27 63/86/27 39/29/27
f 18/36/15 90/62/15 91/96/15 19/38/15
f 27/5/24 51/53/24 49/56/24 25/1/24
f 5/10/29 77/113/29 78/63/29 6/12/29
f 41/33/28 65/114/28 64/89/28 40/31/28
f 19/38/19 91/96/19 92/52/19 20/40/19
f 28/7/25 52/57/25 51/53/25 27/5/25
f 6/12/30 78/63/30 79/68/30 7/14/30
f 42/35/29 66/84/29 65/114/29 41/33/29
f 20/40/21 92/52/21 93/115/21 21/42/21
f 29/9/6 53/116/6 52/57/6 28/7/6
f 7/14/31 79/68/31 80/70/31 8/16/31
f 43/37/30 67/95/30 66/84/30 42/35/30
f 21/42/23 93/115/23 94/104/23 22/44/23
f 30/11/4 54/66/4 53/116/4 29/9/4
f 8/16/17 80/70/17 81/110/17 9/18/17
f 44/39/31 68/49/31 67/95/31 43/37/31
f 97/117/32 115/94/32 116/93/32 98/98/32
f 99/118/33 117/119/33 118/91/33 100/90/33
f 101/65/34 119/64/34 117/119/34 99/118/34
f 102/120/35 120/121/35 121/122/35 103/123/35
f 104/124/36 122/125/36 120/121/36 102/120/36
f 105/75/37 123/108/37 124/126/37 106/85/37
f 107/74/38 125/109/38 123/108/38 105/75/38
f 108/127/39 126/60/39 127/72/39 109/101/39
f 110/83/40 128/61/40 126/60/40 108/127/40
f 111/128/41 129/129/41 130/51/41 112/50/41
f 113/130/42 131/131/42 129/129/42 111/128/42
f 98/98/43 116/93/43 132/132/43 114/99/43
f 49/56/13 97/117/13 98/98/13 50/97/13
f 76/58/28 118/91/28 117/119/28 77/113/28
f 77/113/29 117/119/29 119/64/29 78/63/29
f 56/69/44 103/123/44 121/122/44 80/70/44
f 65/114/28 108/127/28 109/101/28 64/89/28
f 94/104/45 131/131/45 113/130/45 70/105/45
f 66/84/29 110/83/29 108/127/29 65/114/29
f 92/52/21 130/51/21 129/129/21 93/115/21
f 53/116/6 99/118/6 100/90/6 52/57/6
f 82/79/46 122/125/46 104/124/46 58/80/46
f 93/115/23 129/129/23 131/131/23 94/104/23
f 72/100/47 114/99/47 132/132/47 96/106/47
f 54/66/4 101/65/4 99/118/4 53/116/4
f 80/70/17 121/122/17 120/121/17 81/110/17
f 81/110/16 120/121/16 122/125/16 82/79/16
f 60/81/48 106/85/48 124/126/48 84/82/48
f 69/111/17 111/128/17 112/50/17 68/49/17
f 70/105/16 113/130/16 111/128/16 69/111/16
f 96/106/9 132/132/9 116/93/9 74/92/9
f 57/112/21 102/120/21 103/123/21 56/69/21
f 86/88/49 125/109/49 107/74/49 62/73/49
f 73/55/50 115/94/50 97/117/50 49/56/50
f 58/80/23 104/124/23 102/120/23 57/112/23
f 84/82/11 124/126/11 123/108/11 85/107/11
