# Blender v2.93.1 OBJ File: 'piecetop.blend'
# www.blender.org
mtllib top.mtl
o Arrow_Circle.004
v 0.528932 -0.309375 0.254791
v 0.602429 -0.107445 0.254791
v 0.602429 0.107445 0.254791
v 0.768501 0.447460 0.255380
v 0.655589 0.382500 0.254791
v 0.746458 0.132841 0.254791
v 0.746458 -0.132841 0.254791
v 0.655589 -0.382500 0.254791
v 0.484812 -0.586024 0.254791
v 0.254725 -0.718865 0.254791
v -0.006920 -0.765000 0.254791
v -0.268566 -0.718865 0.254791
v -0.498653 -0.586024 0.254791
v -0.669430 -0.382500 0.254791
v -0.760298 -0.132841 0.254791
v -0.760298 0.132841 0.254791
v -0.669430 0.382500 0.254791
v -0.498653 0.586024 0.254791
v -0.268566 0.718865 0.254791
v 0.528932 0.309374 0.254791
v 0.305351 0.659147 0.244983
v 0.264093 0.171509 0.268586
v 0.402275 0.236249 0.254791
v 0.458400 0.082048 0.254791
v 0.458400 -0.082048 0.254791
v 0.402275 -0.236249 0.254791
v 0.296796 -0.361954 0.254791
v 0.154684 -0.444003 0.254791
v -0.006920 -0.472498 0.254791
v -0.168524 -0.444003 0.254791
v -0.310636 -0.361954 0.254791
v -0.416115 -0.236249 0.254791
v -0.472240 -0.082048 0.254791
v -0.472240 0.082048 0.254791
v -0.416115 0.236249 0.254791
v -0.310636 0.361954 0.254791
v -0.168524 0.444003 0.254791
v 0.390804 -0.473989 0.254791
v 0.204704 -0.581434 0.254791
v -0.006920 -0.618749 0.254791
v -0.218545 -0.581434 0.254791
v -0.404644 -0.473989 0.254791
v -0.542773 -0.309374 0.254791
v -0.616269 -0.107445 0.254791
v -0.616269 0.107445 0.254791
v -0.542773 0.309374 0.254791
v -0.404644 0.473989 0.254791
v -0.218545 0.581434 0.254791
v -0.007055 -0.765300 0.074792
v -0.007055 -0.619049 0.074792
v 0.390669 -0.474290 0.074792
v 0.204570 -0.581734 0.074792
v 0.254590 -0.719165 0.074792
v -0.218680 -0.581734 0.074792
v 0.402140 0.235949 0.074792
v 0.263958 0.171209 0.088586
v -0.404779 -0.474290 0.074792
v 0.458265 0.081748 0.074792
v -0.542907 -0.309675 0.074792
v 0.458265 -0.082349 0.074792
v -0.616404 -0.107745 0.074792
v 0.402140 -0.236549 0.074792
v -0.616404 0.107144 0.074792
v 0.296661 -0.362255 0.074792
v -0.542907 0.309074 0.074792
v 0.154549 -0.444303 0.074792
v -0.404779 0.473689 0.074792
v -0.007055 -0.472798 0.074792
v -0.218680 0.581133 0.074792
v -0.168659 -0.444303 0.074792
v -0.268701 0.718565 0.074792
v -0.310771 -0.362255 0.074792
v -0.498788 0.585724 0.074792
v -0.416250 -0.236549 0.074792
v -0.669565 0.382200 0.074792
v -0.472375 -0.082349 0.074792
v -0.760433 0.132541 0.074792
v -0.472375 0.081748 0.074792
v -0.760433 -0.133141 0.074792
v -0.416250 0.235949 0.074792
v -0.669565 -0.382800 0.074792
v -0.310771 0.361654 0.074792
v -0.498788 -0.586324 0.074792
v -0.168659 0.443703 0.074792
v -0.268700 -0.719165 0.074792
v 0.484677 -0.586324 0.074792
v 0.655454 -0.382800 0.074792
v 0.528797 -0.309675 0.074792
v 0.746323 -0.133141 0.074792
v 0.602294 -0.107745 0.074792
v 0.655454 0.382200 0.074792
v 0.768366 0.447159 0.075380
v 0.746323 0.132541 0.074792
v 0.602294 0.107144 0.074792
v 0.528797 0.309074 0.074792
v 0.305216 0.658847 0.064983
vt 0.232552 0.654411
vt 0.149770 0.702205
vt 0.240050 0.809797
vt 0.301493 0.736572
vt 0.195869 0.553626
vt 0.101733 0.570225
vt 0.195869 0.446374
vt 0.101733 0.429775
vt 0.232552 0.345589
vt 0.149770 0.297794
vt 0.301493 0.263428
vt 0.240050 0.190203
vt 0.394377 0.209802
vt 0.361683 0.119978
vt 0.500000 0.191178
vt 0.500000 0.095589
vt 0.605623 0.209802
vt 0.638317 0.119978
vt 0.698507 0.263428
vt 0.759950 0.190203
vt 0.767448 0.345589
vt 0.850230 0.297794
vt 0.804130 0.446374
vt 0.898267 0.429775
vt 0.804130 0.553626
vt 0.898267 0.570225
vt 0.767448 0.654411
vt 0.850230 0.702206
vt 0.698507 0.736572
vt 0.759950 0.809797
vt 0.066987 0.750000
vt 0.178606 0.883022
vt 0.007596 0.586824
vt 0.007596 0.413176
vt 0.066987 0.250000
vt 0.178606 0.116978
vt 0.328990 0.030154
vt 0.500000 0.000000
vt 0.671010 0.030154
vt 0.821394 0.116978
vt 0.933013 0.250000
vt 0.992404 0.413176
vt 0.992404 0.586824
vt 0.933013 0.750000
vt 0.821394 0.883022
vt 0.638317 0.880022
vt 0.671010 0.969846
vt 0.605623 0.790198
vt 0.232552 0.654411
vt 0.301493 0.736572
vt 0.240050 0.809797
vt 0.149770 0.702205
vt 0.195869 0.553626
vt 0.101733 0.570225
vt 0.195869 0.446374
vt 0.101733 0.429775
vt 0.232552 0.345589
vt 0.149770 0.297794
vt 0.301493 0.263428
vt 0.240050 0.190203
vt 0.394377 0.209802
vt 0.361683 0.119978
vt 0.500000 0.191178
vt 0.500000 0.095589
vt 0.605623 0.209802
vt 0.638317 0.119978
vt 0.698507 0.263428
vt 0.759950 0.190203
vt 0.767448 0.345589
vt 0.850230 0.297794
vt 0.804130 0.446374
vt 0.898267 0.429775
vt 0.804130 0.553626
vt 0.898267 0.570225
vt 0.767448 0.654411
vt 0.850230 0.702206
vt 0.698507 0.736572
vt 0.759950 0.809797
vt 0.178606 0.883022
vt 0.066987 0.750000
vt 0.007596 0.586824
vt 0.007596 0.413176
vt 0.066987 0.250000
vt 0.178606 0.116978
vt 0.328990 0.030154
vt 0.500000 0.000000
vt 0.671010 0.030154
vt 0.821394 0.116978
vt 0.933013 0.250000
vt 0.992404 0.413176
vt 0.992404 0.586824
vt 0.933013 0.750000
vt 0.821394 0.883022
vt 0.638317 0.880022
vt 0.671010 0.969846
vt 0.605623 0.790198
vt 0.000000 0.000000
vt 0.000000 0.000000
vt 0.000000 0.000000
vt 0.000000 0.000000
vn 0.0357 0.0314 0.9989
vn 0.0000 0.0000 1.0000
vn -0.0132 0.0187 0.9997
vn -0.0357 -0.0314 -0.9989
vn 0.0000 -0.0000 -1.0000
vn 0.0132 -0.0187 -0.9997
vn 0.1736 0.9848 -0.0018
vn -0.5000 -0.8660 0.0018
vn 0.5000 -0.8660 0.0011
vn 0.9397 0.3420 -0.0013
vn -0.7660 -0.6428 0.0016
vn -0.9397 -0.3420 0.0013
vn 0.5000 0.8660 -0.0018
vn -1.0000 0.0000 0.0007
vn 0.7660 0.6428 -0.0016
vn -0.9397 0.3420 0.0001
vn -0.7660 0.6428 -0.0005
vn 0.4987 -0.8668 0.0011
vn -0.5000 0.8660 -0.0011
vn 1.0000 -0.0000 -0.0007
vn 0.9397 -0.3420 -0.0001
vn 0.4157 0.9095 -0.0018
vn 0.7660 -0.6428 0.0005
vn -0.9964 0.0843 0.0006
vn -0.1736 0.9848 -0.0015
vn 0.1736 -0.9848 0.0015
vn -0.1736 -0.9848 0.0018
vn 0.4244 -0.9055 0.0012
usemtl None
s off
f 23/1/1 20/2/1 21/3/1 22/4/1
f 24/5/2 3/6/2 20/2/2 23/1/2
f 25/7/2 2/8/2 3/6/2 24/5/2
f 26/9/2 1/10/2 2/8/2 25/7/2
f 27/11/2 38/12/2 1/10/2 26/9/2
f 28/13/2 39/14/2 38/12/2 27/11/2
f 29/15/2 40/16/2 39/14/2 28/13/2
f 30/17/2 41/18/2 40/16/2 29/15/2
f 31/19/2 42/20/2 41/18/2 30/17/2
f 32/21/2 43/22/2 42/20/2 31/19/2
f 33/23/2 44/24/2 43/22/2 32/21/2
f 34/25/2 45/26/2 44/24/2 33/23/2
f 35/27/2 46/28/2 45/26/2 34/25/2
f 36/29/2 47/30/2 46/28/2 35/27/2
f 20/2/3 5/31/3 4/32/3 21/3/3
f 3/6/2 6/33/2 5/31/2 20/2/2
f 2/8/2 7/34/2 6/33/2 3/6/2
f 1/10/2 8/35/2 7/34/2 2/8/2
f 38/12/2 9/36/2 8/35/2 1/10/2
f 39/14/2 10/37/2 9/36/2 38/12/2
f 40/16/2 11/38/2 10/37/2 39/14/2
f 41/18/2 12/39/2 11/38/2 40/16/2
f 42/20/2 13/40/2 12/39/2 41/18/2
f 43/22/2 14/41/2 13/40/2 42/20/2
f 44/24/2 15/42/2 14/41/2 43/22/2
f 45/26/2 16/43/2 15/42/2 44/24/2
f 46/28/2 17/44/2 16/43/2 45/26/2
f 47/30/2 18/45/2 17/44/2 46/28/2
f 48/46/2 19/47/2 18/45/2 47/30/2
f 37/48/2 48/46/2 47/30/2 36/29/2
f 55/49/4 56/50/4 96/51/4 95/52/4
f 58/53/5 55/49/5 95/52/5 94/54/5
f 60/55/5 58/53/5 94/54/5 90/56/5
f 62/57/5 60/55/5 90/56/5 88/58/5
f 64/59/5 62/57/5 88/58/5 51/60/5
f 66/61/5 64/59/5 51/60/5 52/62/5
f 68/63/5 66/61/5 52/62/5 50/64/5
f 70/65/5 68/63/5 50/64/5 54/66/5
f 72/67/5 70/65/5 54/66/5 57/68/5
f 74/69/5 72/67/5 57/68/5 59/70/5
f 76/71/5 74/69/5 59/70/5 61/72/5
f 78/73/5 76/71/5 61/72/5 63/74/5
f 80/75/5 78/73/5 63/74/5 65/76/5
f 82/77/5 80/75/5 65/76/5 67/78/5
f 95/52/6 96/51/6 92/79/6 91/80/6
f 94/54/5 95/52/5 91/80/5 93/81/5
f 90/56/5 94/54/5 93/81/5 89/82/5
f 88/58/5 90/56/5 89/82/5 87/83/5
f 51/60/5 88/58/5 87/83/5 86/84/5
f 52/62/5 51/60/5 86/84/5 53/85/5
f 50/64/5 52/62/5 53/85/5 49/86/5
f 54/66/5 50/64/5 49/86/5 85/87/5
f 57/68/5 54/66/5 85/87/5 83/88/5
f 59/70/5 57/68/5 83/88/5 81/89/5
f 61/72/5 59/70/5 81/89/5 79/90/5
f 63/74/5 61/72/5 79/90/5 77/91/5
f 65/76/5 63/74/5 77/91/5 75/92/5
f 67/78/5 65/76/5 75/92/5 73/93/5
f 69/94/5 67/78/5 73/93/5 71/95/5
f 84/96/5 82/77/5 67/78/5 69/94/5
f 30/17/7 29/15/7 68/63/7 70/65/7
f 12/39/8 13/40/8 83/88/8 85/87/8
f 37/48/9 36/29/9 82/77/9 84/96/9
f 19/47/10 48/46/10 69/94/10 71/95/10
f 13/40/11 14/41/11 81/89/11 83/88/11
f 24/5/12 23/1/12 55/49/12 58/53/12
f 31/19/13 30/17/13 70/65/13 72/67/13
f 14/41/12 15/42/12 79/90/12 81/89/12
f 15/42/14 16/43/14 77/91/14 79/90/14
f 25/7/14 24/5/14 58/53/14 60/55/14
f 32/21/15 31/19/15 72/67/15 74/69/15
f 16/43/16 17/44/16 75/92/16 77/91/16
f 17/44/17 18/45/17 73/93/17 75/92/17
f 26/9/16 25/7/16 60/55/16 62/57/16
f 4/32/18 5/31/18 91/80/18 92/79/18
f 33/23/10 32/21/10 74/69/10 76/71/10
f 18/45/19 19/47/19 71/95/19 73/93/19
f 5/31/10 6/33/10 93/81/10 91/80/10
f 27/11/17 26/9/17 62/57/17 64/59/17
f 34/25/20 33/23/20 76/71/20 78/73/20
f 7/34/21 8/35/21 87/83/21 89/82/21
f 21/3/22 4/32/22 92/79/22 96/51/22
f 28/13/19 27/11/19 64/59/19 66/61/19
f 8/35/23 9/36/23 86/84/23 87/83/23
f 35/27/21 34/25/21 78/73/21 80/75/21
f 22/4/24 21/3/24 96/51/24 56/50/24
f 9/36/9 10/37/9 53/85/9 86/84/9
f 29/15/25 28/13/25 66/61/25 68/63/25
f 10/37/26 11/38/26 49/86/26 53/85/26
f 48/46/10 37/48/10 84/96/10 69/94/10
f 36/29/23 35/27/23 80/75/23 82/77/23
f 11/38/27 12/39/27 85/87/27 49/86/27
f 23/1/28 22/4/28 56/50/28 55/49/28
f 89/97/20 93/98/20 7/99/20
f 93/98/20 6/100/20 7/99/20
