# Blender v2.93.1 OBJ File: 'piecetop.blend'
# www.blender.org
mtllib bottom.mtl
o Back_Arrow_Bottom
v 0.787467 -0.000000 -0.093083
v 0.837878 -0.000000 -0.141918
v 0.900190 -0.000000 -0.141918
v 0.950601 -0.000000 -0.093083
v 0.969856 -0.000000 -0.014068
v 0.950601 -0.000000 0.064948
v 0.900190 -0.000000 0.113782
v 0.837878 -0.000000 0.113782
v 0.787467 -0.000000 0.064948
v 0.768212 -0.000000 -0.014068
v 0.805452 -0.276641 -0.093083
v 0.841098 -0.292325 -0.141918
v 0.885158 -0.311712 -0.141918
v 0.920805 -0.327396 -0.093083
v 0.934420 -0.333387 -0.014068
v 0.920805 -0.327396 0.064948
v 0.885158 -0.311712 0.113782
v 0.841098 -0.292325 0.113782
v 0.805452 -0.276641 0.064948
v 0.791836 -0.270650 -0.014068
v -0.119693 -0.276688 -0.093083
v -0.083959 -0.292334 -0.141918
v -0.039789 -0.311673 -0.141918
v -0.004055 -0.327318 -0.093083
v 0.009594 -0.333294 -0.014068
v -0.004055 -0.327318 0.064948
v -0.039789 -0.311673 0.113782
v -0.083959 -0.292334 0.113782
v -0.119693 -0.276688 0.064948
v -0.133342 -0.270712 -0.014068
v -0.086831 -0.661345 -0.093083
v -0.074460 -0.682848 -0.141918
v -0.059168 -0.709427 -0.141918
v -0.046796 -0.730929 -0.093083
v -0.042071 -0.739142 -0.014068
v -0.046796 -0.730929 0.064948
v -0.059168 -0.709427 0.113782
v -0.074460 -0.682848 0.113782
v -0.086831 -0.661345 0.064948
v -0.091557 -0.653132 -0.014068
v -0.845714 0.000000 -0.093083
v -0.896125 0.000000 -0.141918
v -0.958437 0.000000 -0.141918
v -1.008848 0.000000 -0.093083
v -1.028103 0.000000 -0.014068
v -1.008848 0.000000 0.064948
v -0.958437 0.000000 0.113782
v -0.896125 0.000000 0.113782
v -0.845714 0.000000 0.064948
v -0.826459 0.000000 -0.014068
v -0.086831 0.661345 -0.093083
v -0.074460 0.682848 -0.141918
v -0.059168 0.709427 -0.141918
v -0.046796 0.730929 -0.093083
v -0.042071 0.739142 -0.014068
v -0.046796 0.730929 0.064948
v -0.059168 0.709427 0.113782
v -0.074460 0.682848 0.113782
v -0.086831 0.661345 0.064948
v -0.091557 0.653132 -0.014068
v -0.119693 0.276688 -0.093083
v -0.083959 0.292334 -0.141918
v -0.039789 0.311673 -0.141918
v -0.004055 0.327318 -0.093083
v 0.009594 0.333294 -0.014068
v -0.004055 0.327318 0.064948
v -0.039789 0.311673 0.113782
v -0.083959 0.292334 0.113782
v -0.119693 0.276688 0.064948
v -0.133342 0.270712 -0.014068
v 0.805452 0.276641 -0.093083
v 0.841098 0.292325 -0.141918
v 0.885158 0.311712 -0.141918
v 0.920805 0.327396 -0.093083
v 0.934420 0.333387 -0.014068
v 0.920805 0.327396 0.064948
v 0.885158 0.311712 0.113782
v 0.841098 0.292325 0.113782
v 0.805452 0.276641 0.064948
v 0.791836 0.270650 -0.014068
vt 0.000000 1.000000
vt 0.125000 1.000000
vt 0.125000 0.900000
vt 0.000000 0.900000
vt 0.000000 0.100000
vt 0.125000 0.100000
vt 0.125000 0.000000
vt 0.000000 0.000000
vt 0.000000 0.200000
vt 0.125000 0.200000
vt 0.000000 0.300000
vt 0.125000 0.300000
vt 0.000000 0.400000
vt 0.125000 0.400000
vt 0.000000 0.500000
vt 0.125000 0.500000
vt 0.000000 0.600000
vt 0.125000 0.600000
vt 0.000000 0.700000
vt 0.125000 0.700000
vt 0.000000 0.800000
vt 0.125000 0.800000
vt 0.250000 1.000000
vt 0.250000 0.900000
vt 0.250000 0.100000
vt 0.250000 0.000000
vt 0.250000 0.200000
vt 0.250000 0.300000
vt 0.250000 0.400000
vt 0.250000 0.500000
vt 0.250000 0.600000
vt 0.250000 0.700000
vt 0.250000 0.800000
vt 0.375000 1.000000
vt 0.375000 0.900000
vt 0.375000 0.100000
vt 0.375000 0.000000
vt 0.375000 0.200000
vt 0.375000 0.300000
vt 0.375000 0.400000
vt 0.375000 0.500000
vt 0.375000 0.600000
vt 0.375000 0.700000
vt 0.375000 0.800000
vt 0.500000 1.000000
vt 0.500000 0.900000
vt 0.500000 0.100000
vt 0.500000 0.000000
vt 0.500000 0.200000
vt 0.500000 0.300000
vt 0.500000 0.400000
vt 0.500000 0.500000
vt 0.500000 0.600000
vt 0.500000 0.700000
vt 0.500000 0.800000
vt 0.625000 1.000000
vt 0.625000 0.900000
vt 0.625000 0.100000
vt 0.625000 0.000000
vt 0.625000 0.200000
vt 0.625000 0.300000
vt 0.625000 0.400000
vt 0.625000 0.500000
vt 0.625000 0.600000
vt 0.625000 0.700000
vt 0.625000 0.800000
vt 0.750000 1.000000
vt 0.750000 0.900000
vt 0.750000 0.100000
vt 0.750000 0.000000
vt 0.750000 0.200000
vt 0.750000 0.300000
vt 0.750000 0.400000
vt 0.750000 0.500000
vt 0.750000 0.600000
vt 0.750000 0.700000
vt 0.750000 0.800000
vt 0.875000 1.000000
vt 0.875000 0.900000
vt 0.875000 0.100000
vt 0.875000 0.000000
vt 0.875000 0.200000
vt 0.875000 0.300000
vt 0.875000 0.400000
vt 0.875000 0.500000
vt 0.875000 0.600000
vt 0.875000 0.700000
vt 0.875000 0.800000
vt 1.000000 1.000000
vt 1.000000 0.900000
vt 1.000000 0.100000
vt 1.000000 0.000000
vt 1.000000 0.200000
vt 1.000000 0.300000
vt 1.000000 0.400000
vt 1.000000 0.500000
vt 1.000000 0.600000
vt 1.000000 0.700000
vt 1.000000 0.800000
vn -0.9769 -0.0743 -0.2004
vn -0.7522 -0.0280 -0.6583
vn 0.0000 0.0000 -1.0000
vn 0.7451 -0.0523 -0.6649
vn 0.9738 -0.0961 -0.2062
vn 0.9738 -0.0961 0.2062
vn 0.7451 -0.0523 0.6649
vn -0.0000 0.0000 1.0000
vn -0.7522 -0.0280 0.6583
vn -0.9769 -0.0743 0.2004
vn -0.0001 0.9971 -0.0755
vn -0.0000 0.9522 -0.3055
vn -0.0001 -0.9522 -0.3054
vn -0.0001 -0.9971 -0.0755
vn -0.0001 -0.9971 0.0755
vn -0.0001 -0.9522 0.3054
vn -0.0000 0.9522 0.3055
vn -0.0001 0.9971 0.0755
vn -0.9896 -0.0963 -0.1064
vn -0.9033 -0.0494 -0.4261
vn 0.8844 -0.0686 -0.4617
vn 0.9855 -0.1149 -0.1249
vn 0.9855 -0.1149 0.1249
vn 0.8844 -0.0686 0.4617
vn -0.9033 -0.0494 0.4261
vn -0.9896 -0.0963 0.1064
vn 0.6574 0.7470 -0.0993
vn 0.5973 0.7023 -0.3873
vn -0.5658 -0.7311 -0.3813
vn -0.5996 -0.7945 -0.0964
vn -0.5996 -0.7945 0.0964
vn -0.5658 -0.7311 0.3813
vn 0.5973 0.7023 0.3873
vn 0.6574 0.7470 0.0993
vn 0.6574 -0.7470 -0.0993
vn 0.5973 -0.7023 -0.3873
vn -0.5658 0.7311 -0.3813
vn -0.5996 0.7945 -0.0964
vn -0.5996 0.7945 0.0964
vn -0.5658 0.7311 0.3813
vn 0.5973 -0.7023 0.3873
vn 0.6574 -0.7470 0.0993
vn -0.9896 0.0963 -0.1064
vn -0.9033 0.0494 -0.4261
vn 0.8844 0.0686 -0.4617
vn 0.9855 0.1149 -0.1249
vn 0.9855 0.1149 0.1249
vn 0.8844 0.0686 0.4617
vn -0.9033 0.0494 0.4261
vn -0.9896 0.0963 0.1064
vn -0.0000 -0.9522 -0.3055
vn -0.0001 0.9522 -0.3054
vn -0.0001 0.9522 0.3054
vn -0.0000 -0.9522 0.3055
vn -0.9769 0.0743 -0.2004
vn -0.7522 0.0280 -0.6583
vn 0.7451 0.0523 -0.6649
vn 0.9738 0.0961 -0.2062
vn 0.9738 0.0961 0.2062
vn 0.7451 0.0523 0.6649
vn -0.7522 0.0280 0.6583
vn -0.9769 0.0743 0.2004
usemtl None
s off
f 1/1/1 11/2/1 20/3/1 10/4/1
f 2/5/2 12/6/2 11/7/2 1/8/2
f 3/9/3 13/10/3 12/6/3 2/5/3
f 4/11/4 14/12/4 13/10/4 3/9/4
f 5/13/5 15/14/5 14/12/5 4/11/5
f 6/15/6 16/16/6 15/14/6 5/13/6
f 7/17/7 17/18/7 16/16/7 6/15/7
f 8/19/8 18/20/8 17/18/8 7/17/8
f 9/21/9 19/22/9 18/20/9 8/19/9
f 10/4/10 20/3/10 19/22/10 9/21/10
f 11/2/11 21/23/11 30/24/11 20/3/11
f 12/6/12 22/25/12 21/26/12 11/7/12
f 13/10/3 23/27/3 22/25/3 12/6/3
f 14/12/13 24/28/13 23/27/13 13/10/13
f 15/14/14 25/29/14 24/28/14 14/12/14
f 16/16/15 26/30/15 25/29/15 15/14/15
f 17/18/16 27/31/16 26/30/16 16/16/16
f 18/20/8 28/32/8 27/31/8 17/18/8
f 19/22/17 29/33/17 28/32/17 18/20/17
f 20/3/18 30/24/18 29/33/18 19/22/18
f 21/23/19 31/34/19 40/35/19 30/24/19
f 22/25/20 32/36/20 31/37/20 21/26/20
f 23/27/3 33/38/3 32/36/3 22/25/3
f 24/28/21 34/39/21 33/38/21 23/27/21
f 25/29/22 35/40/22 34/39/22 24/28/22
f 26/30/23 36/41/23 35/40/23 25/29/23
f 27/31/24 37/42/24 36/41/24 26/30/24
f 28/32/8 38/43/8 37/42/8 27/31/8
f 29/33/25 39/44/25 38/43/25 28/32/25
f 30/24/26 40/35/26 39/44/26 29/33/26
f 31/34/27 41/45/27 50/46/27 40/35/27
f 32/36/28 42/47/28 41/48/28 31/37/28
f 33/38/3 43/49/3 42/47/3 32/36/3
f 34/39/29 44/50/29 43/49/29 33/38/29
f 35/40/30 45/51/30 44/50/30 34/39/30
f 36/41/31 46/52/31 45/51/31 35/40/31
f 37/42/32 47/53/32 46/52/32 36/41/32
f 38/43/8 48/54/8 47/53/8 37/42/8
f 39/44/33 49/55/33 48/54/33 38/43/33
f 40/35/34 50/46/34 49/55/34 39/44/34
f 41/45/35 51/56/35 60/57/35 50/46/35
f 42/47/36 52/58/36 51/59/36 41/48/36
f 43/49/3 53/60/3 52/58/3 42/47/3
f 44/50/37 54/61/37 53/60/37 43/49/37
f 45/51/38 55/62/38 54/61/38 44/50/38
f 46/52/39 56/63/39 55/62/39 45/51/39
f 47/53/40 57/64/40 56/63/40 46/52/40
f 48/54/8 58/65/8 57/64/8 47/53/8
f 49/55/41 59/66/41 58/65/41 48/54/41
f 50/46/42 60/57/42 59/66/42 49/55/42
f 51/56/43 61/67/43 70/68/43 60/57/43
f 52/58/44 62/69/44 61/70/44 51/59/44
f 53/60/3 63/71/3 62/69/3 52/58/3
f 54/61/45 64/72/45 63/71/45 53/60/45
f 55/62/46 65/73/46 64/72/46 54/61/46
f 56/63/47 66/74/47 65/73/47 55/62/47
f 57/64/48 67/75/48 66/74/48 56/63/48
f 58/65/8 68/76/8 67/75/8 57/64/8
f 59/66/49 69/77/49 68/76/49 58/65/49
f 60/57/50 70/68/50 69/77/50 59/66/50
f 61/67/14 71/78/14 80/79/14 70/68/14
f 62/69/51 72/80/51 71/81/51 61/70/51
f 63/71/3 73/82/3 72/80/3 62/69/3
f 64/72/52 74/83/52 73/82/52 63/71/52
f 65/73/11 75/84/11 74/83/11 64/72/11
f 66/74/18 76/85/18 75/84/18 65/73/18
f 67/75/53 77/86/53 76/85/53 66/74/53
f 68/76/8 78/87/8 77/86/8 67/75/8
f 69/77/54 79/88/54 78/87/54 68/76/54
f 70/68/15 80/79/15 79/88/15 69/77/15
f 71/78/55 1/89/55 10/90/55 80/79/55
f 72/80/56 2/91/56 1/92/56 71/81/56
f 73/82/3 3/93/3 2/91/3 72/80/3
f 74/83/57 4/94/57 3/93/57 73/82/57
f 75/84/58 5/95/58 4/94/58 74/83/58
f 76/85/59 6/96/59 5/95/59 75/84/59
f 77/86/60 7/97/60 6/96/60 76/85/60
f 78/87/8 8/98/8 7/97/8 77/86/8
f 79/88/61 9/99/61 8/98/61 78/87/61
f 80/79/62 10/90/62 9/99/62 79/88/62
