# Blender v2.93.1 OBJ File: 'piecetop.blend'
# www.blender.org
mtllib top.mtl
o Back_Arrow_Plane
v 0.848870 -0.295745 0.254791
v -0.071763 -0.687536 0.254791
v 0.848870 0.295745 0.254791
v -0.071762 0.687536 0.254791
v -0.076168 -0.295745 0.254791
v -0.076168 0.295745 0.254791
v 0.848870 -0.000000 0.254791
v -0.907117 0.000000 0.254791
v -0.076168 0.000000 0.254791
v 0.848870 -0.000000 0.075552
v 0.848870 -0.295745 0.075552
v -0.076168 -0.295745 0.075552
v -0.071763 -0.687536 0.075552
v -0.907117 0.000000 0.075552
v -0.071762 0.687536 0.075552
v -0.076168 0.295745 0.075552
v 0.848870 0.295745 0.075552
v -0.076168 0.000000 0.075552
vt 0.500000 0.500000
vt 0.500000 1.000000
vt 1.000000 1.000000
vt 1.000000 0.500000
vt 0.000000 0.500000
vt 0.000000 1.000000
vt 0.000000 0.000000
vt 0.500000 0.000000
vt 1.000000 0.000000
vt 0.500000 0.500000
vt 1.000000 0.500000
vt 1.000000 1.000000
vt 0.500000 1.000000
vt 0.000000 0.500000
vt 0.000000 1.000000
vt 0.000000 0.000000
vt 0.500000 0.000000
vt 1.000000 0.000000
vn 0.0000 0.0000 1.0000
vn 0.0000 -0.0000 -1.0000
vn -0.6355 -0.7721 0.0000
vn -0.0000 -1.0000 0.0000
vn -0.6355 0.7721 0.0000
vn 1.0000 0.0000 0.0000
vn 0.9999 -0.0112 0.0000
vn 0.0000 1.0000 0.0000
vn 0.9999 0.0112 0.0000
usemtl None
s off
f 9/1/1 6/2/1 4/3/1 8/4/1
f 7/5/1 3/6/1 6/2/1 9/1/1
f 1/7/1 7/5/1 9/1/1 5/8/1
f 5/8/1 9/1/1 8/4/1 2/9/1
f 18/10/2 14/11/2 15/12/2 16/13/2
f 10/14/2 18/10/2 16/13/2 17/15/2
f 11/16/2 12/17/2 18/10/2 10/14/2
f 12/17/2 13/18/2 14/11/2 18/10/2
f 2/9/3 8/4/3 14/11/3 13/18/3
f 1/7/4 5/8/4 12/17/4 11/16/4
f 8/4/5 4/3/5 15/12/5 14/11/5
f 7/5/6 1/7/6 11/16/6 10/14/6
f 3/6/6 7/5/6 10/14/6 17/15/6
f 4/3/7 6/2/7 16/13/7 15/12/7
f 6/2/8 3/6/8 17/15/8 16/13/8
f 5/8/9 2/9/9 13/18/9 12/17/9
