# Blender v2.93.1 OBJ File: 'piecetop.blend'
# www.blender.org
mtllib top.mtl
o Camera_Plane.003
v 0.733777 -0.486993 0.254791
v -0.772615 -0.416958 0.254791
v 0.733777 0.486993 0.254791
v -0.772615 0.416958 0.254791
v 0.255551 -0.416958 0.254791
v 0.255551 0.416958 0.254791
v 0.264013 0.156249 0.254791
v 0.264013 -0.156249 0.254791
v -0.015392 0.568261 0.254791
v -0.015392 0.792310 0.254791
v 0.096632 0.762293 0.254791
v 0.178640 0.680285 0.254791
v 0.208657 0.568261 0.254791
v 0.178640 0.456236 0.254791
v 0.096632 0.374228 0.254791
v -0.015392 0.344211 0.254791
v -0.127417 0.374228 0.254791
v -0.209425 0.456236 0.254791
v -0.239442 0.568261 0.254791
v -0.209425 0.680285 0.254791
v -0.127417 0.762293 0.254791
v -0.449161 0.568261 0.254791
v -0.449161 0.792310 0.254791
v -0.337136 0.762293 0.254791
v -0.255129 0.680285 0.254791
v -0.255129 0.456236 0.254791
v -0.337136 0.374228 0.254791
v -0.449161 0.344211 0.254791
v -0.561186 0.374228 0.254791
v -0.643193 0.456236 0.254791
v -0.673210 0.568261 0.254791
v -0.643193 0.680285 0.254791
v -0.561186 0.762293 0.254791
v 0.733777 -0.486993 0.075552
v -0.772615 -0.416958 0.075552
v 0.733777 0.486993 0.075552
v -0.772615 0.416958 0.075552
v 0.255551 -0.416958 0.075552
v 0.255551 0.416958 0.075552
v 0.264013 0.156249 0.075552
v 0.264013 -0.156249 0.075552
v -0.015392 0.568261 0.075552
v -0.015392 0.792310 0.075552
v 0.096632 0.762293 0.075552
v 0.178640 0.680285 0.075552
v 0.208657 0.568261 0.075552
v 0.178640 0.456236 0.075552
v 0.096632 0.374228 0.075552
v -0.015392 0.344211 0.075552
v -0.127417 0.374228 0.075552
v -0.209425 0.456236 0.075552
v -0.239442 0.568261 0.075552
v -0.209425 0.680285 0.075552
v -0.127417 0.762293 0.075552
v -0.449161 0.568261 0.075552
v -0.449161 0.792310 0.075552
v -0.337136 0.762293 0.075552
v -0.255129 0.680285 0.075552
v -0.255129 0.456236 0.075552
v -0.337136 0.374228 0.075552
v -0.449161 0.344211 0.075552
v -0.561186 0.374228 0.075552
v -0.643193 0.456236 0.075552
v -0.673210 0.568261 0.075552
v -0.643193 0.680285 0.075552
v -0.561186 0.762293 0.075552
vt 0.500000 0.000000
vt 0.500000 1.000000
vt 1.000000 1.000000
vt 1.000000 0.000000
vt 0.250000 0.000000
vt 0.250000 1.000000
vt 0.000000 0.000000
vt 0.000000 1.000000
vt 0.500000 0.500000
vt 0.250000 0.933013
vt 0.500000 1.000000
vt 0.066987 0.750000
vt 0.000000 0.500000
vt 0.066987 0.250000
vt 0.250000 0.066987
vt 0.500000 0.000000
vt 0.750000 0.066987
vt 0.933013 0.250000
vt 1.000000 0.500000
vt 0.933013 0.750000
vt 0.750000 0.933013
vt 0.500000 0.500000
vt 0.250000 0.933013
vt 0.500000 1.000000
vt 0.066987 0.750000
vt 0.000000 0.500000
vt 0.066987 0.250000
vt 0.250000 0.066987
vt 0.500000 0.000000
vt 0.750000 0.066987
vt 0.933013 0.250000
vt 1.000000 0.500000
vt 0.933013 0.750000
vt 0.750000 0.933013
vt 0.500000 0.500000
vt 0.500000 1.000000
vt 0.250000 0.933013
vt 0.066987 0.750000
vt 0.000000 0.500000
vt 0.066987 0.250000
vt 0.250000 0.066987
vt 0.500000 0.000000
vt 0.750000 0.066987
vt 0.933013 0.250000
vt 1.000000 0.500000
vt 0.933013 0.750000
vt 0.750000 0.933013
vt 0.500000 0.500000
vt 0.500000 1.000000
vt 0.250000 0.933013
vt 0.066987 0.750000
vt 0.000000 0.500000
vt 0.066987 0.250000
vt 0.250000 0.066987
vt 0.500000 0.000000
vt 0.750000 0.066987
vt 0.933013 0.250000
vt 1.000000 0.500000
vt 0.933013 0.750000
vt 0.750000 0.933013
vt 0.250000 1.000000
vt 0.500000 1.000000
vt 0.250000 0.000000
vt 0.000000 0.000000
vt 0.000000 1.000000
vt 1.000000 0.000000
vt 0.500000 0.000000
vt 1.000000 1.000000
vn 0.0000 0.0000 1.0000
vn 0.0000 0.0000 -1.0000
vn 0.7071 -0.7071 0.0000
vn -0.2588 0.9659 0.0000
vn -0.2588 -0.9659 0.0000
vn 0.9995 0.0324 0.0000
vn 0.2588 0.9659 0.0000
vn 0.2588 -0.9659 0.0000
vn -0.5757 -0.8177 0.0000
vn -0.7071 -0.7071 0.0000
vn 0.7071 0.7071 0.0000
vn -0.9659 -0.2588 0.0000
vn 0.9903 0.1387 0.0000
vn -0.9659 0.2588 0.0000
vn 1.0000 -0.0000 0.0000
vn 0.9903 -0.1387 0.0000
vn 0.0000 -1.0000 0.0000
vn -0.7071 0.7071 0.0000
vn 0.9659 0.2588 0.0000
vn -1.0000 -0.0000 0.0000
vn -0.5757 0.8177 0.0000
vn 0.9659 -0.2588 0.0000
vn 0.9995 -0.0324 0.0000
vn 0.0000 1.0000 0.0000
usemtl None
s off
f 5/1/1 6/2/1 4/3/1 2/4/1
f 8/5/1 7/6/1 6/2/1 5/1/1
f 1/7/1 3/8/1 7/6/1 8/5/1
f 9/9/1 11/10/1 10/11/1
f 9/9/1 12/12/1 11/10/1
f 9/9/1 13/13/1 12/12/1
f 9/9/1 14/14/1 13/13/1
f 9/9/1 15/15/1 14/14/1
f 9/9/1 16/16/1 15/15/1
f 9/9/1 17/17/1 16/16/1
f 9/9/1 18/18/1 17/17/1
f 9/9/1 19/19/1 18/18/1
f 9/9/1 20/20/1 19/19/1
f 9/9/1 21/21/1 20/20/1
f 9/9/1 10/11/1 21/21/1
f 22/22/1 24/23/1 23/24/1
f 22/22/1 25/25/1 24/23/1
f 22/22/1 19/26/1 25/25/1
f 22/22/1 26/27/1 19/26/1
f 22/22/1 27/28/1 26/27/1
f 22/22/1 28/29/1 27/28/1
f 22/22/1 29/30/1 28/29/1
f 22/22/1 30/31/1 29/30/1
f 22/22/1 31/32/1 30/31/1
f 22/22/1 32/33/1 31/32/1
f 22/22/1 33/34/1 32/33/1
f 22/22/1 23/24/1 33/34/1
f 42/35/2 43/36/2 44/37/2
f 42/35/2 44/37/2 45/38/2
f 42/35/2 45/38/2 46/39/2
f 42/35/2 46/39/2 47/40/2
f 42/35/2 47/40/2 48/41/2
f 42/35/2 48/41/2 49/42/2
f 42/35/2 49/42/2 50/43/2
f 42/35/2 50/43/2 51/44/2
f 42/35/2 51/44/2 52/45/2
f 42/35/2 52/45/2 53/46/2
f 42/35/2 53/46/2 54/47/2
f 42/35/2 54/47/2 43/36/2
f 55/48/2 56/49/2 57/50/2
f 55/48/2 57/50/2 58/51/2
f 55/48/2 58/51/2 52/52/2
f 55/48/2 52/52/2 59/53/2
f 55/48/2 59/53/2 60/54/2
f 55/48/2 60/54/2 61/55/2
f 55/48/2 61/55/2 62/56/2
f 55/48/2 62/56/2 63/57/2
f 55/48/2 63/57/2 64/58/2
f 55/48/2 64/58/2 65/59/2
f 55/48/2 65/59/2 66/60/2
f 55/48/2 66/60/2 56/49/2
f 14/14/3 15/15/3 48/41/3 47/40/3
f 21/21/4 10/11/4 43/36/4 54/47/4
f 28/29/5 29/30/5 62/56/5 61/55/5
f 6/2/6 7/6/6 40/61/6 39/62/6
f 23/24/7 24/23/7 57/50/7 56/49/7
f 15/15/8 16/16/8 49/42/8 48/41/8
f 1/7/9 8/5/9 41/63/9 34/64/9
f 29/30/10 30/31/10 63/57/10 62/56/10
f 16/16/5 17/17/5 50/43/5 49/42/5
f 10/11/7 11/10/7 44/37/7 43/36/7
f 24/23/11 25/25/11 58/51/11 57/50/11
f 30/31/12 31/32/12 64/58/12 63/57/12
f 17/17/10 18/18/10 51/44/10 50/43/10
f 25/25/13 19/26/13 52/52/13 58/51/13
f 31/32/14 32/33/14 65/59/14 64/58/14
f 11/10/11 12/12/11 45/38/11 44/37/11
f 3/8/15 1/7/15 34/64/15 36/65/15
f 18/18/12 19/19/12 52/45/12 51/44/12
f 19/26/16 26/27/16 59/53/16 52/52/16
f 5/1/17 2/4/17 35/66/17 38/67/17
f 32/33/18 33/34/18 66/60/18 65/59/18
f 12/12/19 13/13/19 46/39/19 45/38/19
f 2/4/20 4/3/20 37/68/20 35/66/20
f 19/19/14 20/20/14 53/46/14 52/45/14
f 26/27/3 27/28/3 60/54/3 59/53/3
f 7/6/21 3/8/21 36/65/21 40/61/21
f 33/34/4 23/24/4 56/49/4 66/60/4
f 13/13/22 14/14/22 47/40/22 46/39/22
f 8/5/23 5/1/23 38/67/23 41/63/23
f 20/20/18 21/21/18 54/47/18 53/46/18
f 27/28/8 28/29/8 61/55/8 60/54/8
f 4/3/24 6/2/24 39/62/24 37/68/24
